<?xml version="1.0" encoding="UTF-8"?>
<svg id="_圖層_1" data-name="圖層 1" xmlns="http://www.w3.org/2000/svg" viewBox="0 0 148.7 77.08">
  <defs>
    <style>
      .cls-1 {
        fill: #f03232;
      }
    </style>
  </defs>
  <path class="cls-1" d="M27.88,2.35H3.26v71.58h24.61c22.47,0,37.99-15.66,37.99-35.78v-.22c0-20.14-15.52-35.58-37.99-35.58ZM49.42,38.33c0,12.68-8.68,21.38-21.55,21.38h-8.89V16.56h8.89c12.87,0,21.55,8.9,21.55,21.59v.18Z"/>
  <polygon class="cls-1" points="127.39 2.35 109.66 36 91.92 2.35 73.78 2.35 103.2 55.88 116.11 55.88 129.91 30.87 129.91 73.93 145.54 73.93 145.54 2.35 127.39 2.35"/>
  <path class="cls-1" d="M81.74,53.04c-6.42,0-11.62,5.22-11.62,11.64s5.2,11.62,11.62,11.62,11.61-5.2,11.61-11.62-5.19-11.64-11.61-11.64Z"/>
</svg>